<svg xmlns="http://www.w3.org/2000/svg" width="68.459" height="54.77" viewBox="0 0 68.459 54.77">
  <g id="Icon_ionic-ios-partly-sunny" data-name="Icon ionic-ios-partly-sunny" transform="translate(-1.125 -4.5)">
    <g id="Group_25" data-name="Group 25" transform="translate(1.125 4.5)">
      <path id="Path_1" data-name="Path 1" d="M12.99,4.5h-.043a2.258,2.258,0,0,0-2.253,2.253v4.321a2.258,2.258,0,0,0,2.253,2.253h.043a2.258,2.258,0,0,0,2.253-2.253V6.753A2.258,2.258,0,0,0,12.99,4.5Z" transform="translate(8.712 -4.5)" fill="#fff"/>
      <path id="Path_2" data-name="Path 2" d="M10.108,16.365v-.043A2.258,2.258,0,0,0,7.855,14.07H3.378a2.258,2.258,0,0,0-2.253,2.253v.043a2.258,2.258,0,0,0,2.253,2.253H7.841A2.261,2.261,0,0,0,10.108,16.365Z" transform="translate(-1.125 5.337)" fill="#fff"/>
      <path id="Path_3" data-name="Path 3" d="M7.4,13.91A2.254,2.254,0,1,0,10.6,10.73L7.7,7.807a2.257,2.257,0,0,0-1.6-.67h0a2.26,2.26,0,0,0-1.6,3.85Z" transform="translate(1.681 -1.789)" fill="#fff"/>
      <path id="Path_4" data-name="Path 4" d="M22.472,7.737a2.257,2.257,0,0,0-1.6-.67h0a2.257,2.257,0,0,0-1.6.67l-2.895,2.909a2.264,2.264,0,0,0,0,3.18l.043.043h.014a2.215,2.215,0,0,0,1.54.613,2.257,2.257,0,0,0,1.6-.67L22.472,10.9A2.246,2.246,0,0,0,22.472,7.737Z" transform="translate(13.89 -1.862)" fill="#fff"/>
      <path id="Path_5" data-name="Path 5" d="M9.14,19.216h0a2.257,2.257,0,0,0-1.6.67L4.648,22.81a2.254,2.254,0,1,0,3.194,3.18l2.895-2.923a2.26,2.26,0,0,0-1.6-3.85Z" transform="translate(1.826 10.628)" fill="#fff"/>
    </g>
    <path id="Path_6" data-name="Path 6" d="M50.085,24.571h-.342a9.453,9.453,0,0,0-1.283.057,16.019,16.019,0,0,0-21.546-11.45,15.771,15.771,0,0,0-2.1,1.012A16.086,16.086,0,0,0,16.8,27.252c-.014.3-.029.585-.029.884,0,.485.029.97.071,1.44,0,.057.014.114.014.157a10.928,10.928,0,0,0,.955,21.774H50.1a13.47,13.47,0,0,0-.014-26.936Z" transform="translate(6.267 7.763)" fill="#fff"/>
    <path id="Path_7" data-name="Path 7" d="M14.861,30.429v-.043c-.043-.485-.071-.97-.071-1.454,0-.3.014-.6.029-.9a16.345,16.345,0,0,1,8.156-13.275A15.321,15.321,0,0,1,25.1,13.731h.014a10.447,10.447,0,1,0-10.252,16.7Z" transform="translate(5.472 5.385)" fill="#fff"/>
  </g>
</svg>
